HIERARCHY
ROOT Hips
{
	OFFSET 0.00000 0.00000 0.00000
	CHANNELS 6 Xposition Yposition Zposition Zrotation Yrotation Xrotation 
	JOINT LHipJoint
	{
		OFFSET 0 0 0
		CHANNELS 3 Zrotation Yrotation Xrotation
		JOINT LeftUpLeg
		{
			OFFSET 1.34019 -1.87553 0.90315
			CHANNELS 3 Zrotation Yrotation Xrotation
			JOINT LeftLeg
			{
				OFFSET 2.55316 -7.01474 0.00000
				CHANNELS 3 Zrotation Yrotation Xrotation
				JOINT LeftFoot
				{
					OFFSET 2.64657 -7.27139 0.00000
					CHANNELS 3 Zrotation Yrotation Xrotation
					JOINT LeftToeBase
					{
						OFFSET 0.24207 -0.66507 2.14489
						CHANNELS 3 Zrotation Yrotation Xrotation
						End Site
						{
							OFFSET 0.00000 -0.00000 1.12451
						}
					}
				}
			}
		}
	}
	JOINT RHipJoint
	{
		OFFSET 0 0 0
		CHANNELS 3 Zrotation Yrotation Xrotation
		JOINT RightUpLeg
		{
			OFFSET -1.28320 -1.87553 0.90315
			CHANNELS 3 Zrotation Yrotation Xrotation
			JOINT RightLeg
			{
				OFFSET -2.60484 -7.15674 0.00000
				CHANNELS 3 Zrotation Yrotation Xrotation
				JOINT RightFoot
				{
					OFFSET -2.60296 -7.15159 0.00000
					CHANNELS 3 Zrotation Yrotation Xrotation
					JOINT RightToeBase
					{
						OFFSET -0.31082 -0.85398 2.28998
						CHANNELS 3 Zrotation Yrotation Xrotation
						End Site
						{
							OFFSET -0.00000 -0.00000 1.21611
						}
					}
				}
			}
		}
	}
	JOINT LowerBack
	{
		OFFSET 0 0 0
		CHANNELS 3 Zrotation Yrotation Xrotation
		JOINT Spine
		{
			OFFSET -0.00160 2.05581 -0.15156
			CHANNELS 3 Zrotation Yrotation Xrotation
			JOINT Spine1
			{
				OFFSET 0.04594 2.06326 -0.01617
				CHANNELS 3 Zrotation Yrotation Xrotation
				JOINT Neck
				{
					OFFSET 0 0 0
					CHANNELS 3 Zrotation Yrotation Xrotation
					JOINT Neck1
					{
						OFFSET 0.03753 1.73883 0.26751
						CHANNELS 3 Zrotation Yrotation Xrotation
						JOINT Head
						{
							OFFSET -0.09795 1.76129 -0.31794
							CHANNELS 3 Zrotation Yrotation Xrotation
							End Site
							{
								OFFSET -0.03611 1.79987 -0.13846
							}
						}
					}
				}
				JOINT LeftShoulder
				{
					OFFSET 0 0 0
					CHANNELS 3 Zrotation Yrotation Xrotation
					JOINT LeftArm
					{
						OFFSET 3.30667 1.29205 -0.22445
						CHANNELS 3 Zrotation Yrotation Xrotation
						JOINT LeftForeArm
						{
							OFFSET 4.92785 -0.00000 -0.00000
							CHANNELS 3 Zrotation Yrotation Xrotation
							JOINT LeftHand
							{
								OFFSET 3.44052 -0.00000 0.00000
								CHANNELS 3 Zrotation Yrotation Xrotation
								JOINT LeftFingerBase
								{
									OFFSET 0 0 0
									CHANNELS 3 Zrotation Yrotation Xrotation
									JOINT LeftHandIndex1
									{
										OFFSET 0.65433 -0.00000 0.00000
										CHANNELS 3 Zrotation Yrotation Xrotation
										End Site
										{
											OFFSET 0.52753 -0.00000 0.00000
										}
									}
								}
								JOINT LThumb
								{
									OFFSET 0 0 0
									CHANNELS 3 Zrotation Yrotation Xrotation
									End Site
									{
										OFFSET 0.53559 -0.00000 0.53559
									}
								}
							}
						}
					}
				}
				JOINT RightShoulder
				{
					OFFSET 0 0 0
					CHANNELS 3 Zrotation Yrotation Xrotation
					JOINT RightArm
					{
						OFFSET -3.20032 1.49783 -0.27688
						CHANNELS 3 Zrotation Yrotation Xrotation
						JOINT RightForeArm
						{
							OFFSET -5.09181 -0.00000 -0.00000
							CHANNELS 3 Zrotation Yrotation Xrotation
							JOINT RightHand
							{
								OFFSET -3.49865 -0.00000 -0.00000
								CHANNELS 3 Zrotation Yrotation Xrotation
								JOINT RightFingerBase
								{
									OFFSET 0 0 0
									CHANNELS 3 Zrotation Yrotation Xrotation
									JOINT RightHandIndex1
									{
										OFFSET -0.66641 -0.00000 0.00000
										CHANNELS 3 Zrotation Yrotation Xrotation
										End Site
										{
											OFFSET -0.53728 -0.00000 0.00000
										}
									}
								}
								JOINT RThumb
								{
									OFFSET 0 0 0
									CHANNELS 3 Zrotation Yrotation Xrotation
									End Site
									{
										OFFSET -0.54548 -0.00000 0.54548
									}
								}
							}
						}
					}
				}
			}
		}
	}
}
MOTION
Frames: 12
Frame Time: .0083333
1.6666 17.8514 -29.0648 0 0 0 0 0 0 -21 0 0 0 0 0 0 0 0 0 0 0 0 0 0 21 0 0 0 0 0 0 0 0 0 0 0 0 0 0 0 0 0 0 0 0 0 0 -16 0 0 21 0 0 11 0 0 0 -8 0 0 0 0 0 0 0 0 0 0 0 0 0 0 0 0 0 0 0 0 8 0 0 0 0 0 0 0 0 0 0 0 0 0 0 0 0 0
1.6666 17.8514 -29.0648 -5.4253 -1.2735 8.7643 0.0000 0.0000 0.0000 -20.7258 -0.9138 -19.7203 2.7867 10.3414 30.0896 0.8258 3.6701 -18.8751 0.0978 -2.0168 -5.5520 0.0000 0.0000 0.0000 17.1447 -1.5391 -4.1232 -11.9852 -18.3844 65.9419 0.0504 -12.5997 8.1558 -0.0080 -0.5781 1.5887 -0.0014 -0.4736 7.1690 4.3002 -0.4210 -0.9598 4.5415 -0.1459 -4.9969 5.1153 -5.2207 -19.8197 -4.7273 -7.7122 22.3800 -3.5885 -3.6972 9.9834 -0.0000 0.0000 0.0000 -82.1854 1.5667 20.8520 17.0252 -26.8909 -4.0987 -0.0000 0.0000 -4.1956 14.8356 -5.6208 -1.4861 -7.1250 0.0000 -0.0000 -8.8074 24.1724 4.4796 -0.0000 0.0000 0.0000 82.3831 -10.4133 13.8323 -21.2422 32.1099 -6.1782 0.0000 -0.0000 -7.0767 -14.3913 -5.5811 1.4295 7.1250 -0.0000 -0.0000 10.2581 -35.5830 2.4054
1.6667 17.8546 -29.0615 -5.4650 -1.2501 8.8161 0.0000 0.0000 0.0000 -20.6774 -0.8817 -19.7753 2.7845 10.3378 30.0776 0.8225 3.6264 -18.8169 0.1019 -2.0586 -5.6678 0.0000 0.0000 0.0000 17.1771 -1.6222 -4.0186 -11.9243 -18.3585 65.7486 0.0402 -12.5539 8.2637 -0.0375 -1.2493 3.4351 -0.0784 -0.5236 7.2075 4.3213 -0.4901 -1.0348 4.6182 -0.1756 -5.0912 5.1571 -5.0337 -19.7572 -4.7589 -7.4509 22.2196 -3.5637 -3.5811 9.9270 0.0000 -0.0000 0.0000 -82.2639 1.7947 20.8772 17.1914 -27.1094 -4.1742 -0.0000 0.0000 -4.4003 14.8855 -5.4269 -1.4400 -7.1250 0.0000 -0.0000 -8.7806 24.3692 4.4252 0.0000 -0.0000 0.0000 82.2911 -10.4426 14.0613 -21.3037 32.1811 -6.2109 0.0000 -0.0000 -7.2352 -14.4845 -6.0895 1.5697 7.1250 -0.0000 -0.0000 10.2597 -36.1038 2.2735
1.6662 17.8577 -29.0578 -5.5707 -1.2517 8.8645 0.0000 0.0000 0.0000 -20.5318 -0.8265 -19.9203 2.7811 10.3320 30.0588 0.8137 3.5353 -18.6753 0.1045 -2.0849 -5.7402 0.0000 0.0000 0.0000 17.3125 -1.6199 -3.8726 -11.8680 -18.3343 65.5699 0.0628 -12.7048 8.0635 -0.0409 -1.3050 3.5885 -0.0884 -0.5302 7.2056 4.3717 -0.4943 -1.1170 4.6796 -0.1746 -5.1757 5.0973 -4.9963 -19.8434 -4.7680 -7.3845 22.3997 -3.5605 -3.5521 10.0134 -0.0000 0.0000 0.0000 -82.4684 1.8503 20.8057 17.2254 -27.1540 -4.1897 -0.0000 0.0000 -4.4955 14.6792 -5.4359 -1.4215 -7.1250 0.0000 -0.0000 -8.9330 24.3653 4.5046 -0.0000 0.0000 0.0000 82.1716 -10.5633 14.1168 -21.3271 32.2081 -6.2233 0.0000 -0.0000 -7.4521 -14.6216 -6.0832 1.5836 7.1250 -0.0000 -0.0000 10.1454 -36.1049 2.2472
1.6692 17.8579 -29.0522 -5.5324 -1.2737 8.8944 0.0000 0.0000 0.0000 -20.5958 -0.7483 -19.8987 2.7772 10.3254 30.0369 0.8292 3.3783 -18.7453 0.1003 -2.0420 -5.6218 0.0000 0.0000 0.0000 17.2071 -1.7141 -3.7482 -11.8163 -18.3119 65.4053 0.0506 -12.6318 8.1783 -0.0262 -1.0456 2.8743 0.0127 -0.3739 7.1027 4.1034 -0.2894 -1.1888 4.3139 -0.0790 -5.2099 5.1607 -5.2548 -19.4568 -4.5099 -7.8104 22.3471 -3.5156 -3.7135 9.9080 -0.0000 0.0000 0.0000 -81.9966 1.9847 21.6498 17.3444 -27.3096 -4.2441 -0.0000 0.0000 -4.7424 14.5749 -5.2489 -1.3626 -7.1250 0.0000 -0.0000 -9.0207 24.5587 4.5089 -0.0000 0.0000 0.0000 82.7009 -10.7522 13.4759 -21.3114 32.1901 -6.2150 0.0000 -0.0000 -7.2914 -14.6023 -6.0427 1.5710 7.1250 -0.0000 -0.0000 10.1550 -36.0627 2.2600
1.6707 17.8593 -29.0474 -5.5687 -1.2736 8.9247 0.0000 0.0000 0.0000 -20.5560 -0.6775 -19.9335 2.7745 10.3207 30.0215 0.8351 3.2399 -18.7286 0.1005 -2.0444 -5.6284 0.0000 0.0000 0.0000 17.2192 -1.7908 -3.6135 -11.7622 -18.2883 65.2330 0.0518 -12.6556 8.1797 -0.0213 -0.9414 2.5875 -0.0055 -0.3926 7.0452 4.0977 -0.3177 -1.1924 4.3204 -0.0930 -5.1788 5.1373 -5.2076 -19.4976 -4.5026 -7.7415 22.3679 -3.5035 -3.6821 9.9285 -0.0000 0.0000 0.0000 -82.0463 2.0429 21.7342 17.4419 -27.4367 -4.2890 -0.0000 0.0000 -4.8576 14.4451 -5.1420 -1.3225 -7.1250 0.0000 -0.0000 -9.1231 24.6707 4.5374 -0.0000 0.0000 0.0000 82.6583 -10.6860 13.4818 -21.2716 32.1440 -6.1938 0.0000 -0.0000 -7.2697 -14.6378 -6.0196 1.5690 7.1250 -0.0000 -0.0000 10.1221 -36.0412 2.2579
1.6721 17.8606 -29.0423 -5.6103 -1.2671 8.9499 0.0000 0.0000 0.0000 -20.5101 -0.6047 -19.9551 2.7707 10.3142 30.0003 0.8422 3.0902 -18.7181 0.1008 -2.0474 -5.6366 0.0000 0.0000 0.0000 17.2358 -1.8818 -3.4776 -11.7099 -18.2653 65.0662 0.0543 -12.6857 8.1673 -0.0145 -0.7766 2.1344 -0.0308 -0.4299 6.9810 4.1165 -0.3710 -1.1732 4.3589 -0.1193 -5.1181 5.0933 -5.1485 -19.5978 -4.5200 -7.6467 22.4099 -3.4967 -3.6428 9.9686 0.0000 -0.0000 0.0000 -82.1395 2.0725 21.7574 17.5364 -27.5594 -4.3326 -0.0000 0.0000 -4.9647 14.2926 -5.0609 -1.2874 -7.1250 0.0000 -0.0000 -9.2411 24.7568 4.5789 0.0000 -0.0000 0.0000 82.5607 -10.5704 13.5476 -21.2231 32.0878 -6.1680 0.0000 -0.0000 -7.2309 -14.6501 -5.9408 1.5499 7.1250 -0.0000 -0.0000 10.0996 -35.9617 2.2726
1.6733 17.8617 -29.0375 -5.6581 -1.2500 8.9768 0.0000 0.0000 0.0000 -20.4553 -0.5317 -19.9789 2.7689 10.3113 29.9907 0.8512 2.9273 -18.7224 0.1011 -2.0504 -5.6449 0.0000 0.0000 0.0000 17.2584 -1.9900 -3.3490 -11.6577 -18.2422 64.8996 0.0574 -12.7237 8.1538 -0.0095 -0.6289 1.7283 -0.0565 -0.4717 6.9226 4.1427 -0.4301 -1.1537 4.4062 -0.1484 -5.0598 5.0512 -5.0915 -19.7023 -4.5504 -7.5518 22.4396 -3.4943 -3.6053 10.0045 -0.0000 0.0000 0.0000 -82.2378 2.0976 21.7743 17.6284 -27.6787 -4.3752 -0.0000 0.0000 -5.0651 14.1357 -4.9863 -1.2540 -7.1250 0.0000 -0.0000 -9.3622 24.8361 4.6230 -0.0000 0.0000 0.0000 82.4473 -10.4688 13.6653 -21.1990 32.0599 -6.1552 0.0000 -0.0000 -7.2170 -14.6416 -5.8590 1.5277 7.1250 -0.0000 -0.0000 10.0941 -35.8782 2.2922
1.6742 17.8631 -29.0330 -5.7188 -1.2228 9.0061 0.0000 0.0000 0.0000 -20.3798 -0.4657 -20.0131 2.7681 10.3099 29.9862 0.8600 2.7590 -18.7233 0.1010 -2.0493 -5.6420 0.0000 0.0000 0.0000 17.2985 -2.1090 -3.2309 -11.6074 -18.2197 64.7390 0.0613 -12.7809 8.1437 -0.0069 -0.5361 1.4732 -0.0959 -0.5274 6.8837 4.1982 -0.5067 -1.1399 4.4947 -0.1852 -5.0167 5.0073 -5.0148 -19.8253 -4.6117 -7.4214 22.4529 -3.4979 -3.5559 10.0385 -0.0000 0.0000 0.0000 -82.3889 2.1217 21.7256 17.7113 -27.7860 -4.4139 -0.0000 0.0000 -5.1319 13.9725 -4.9211 -1.2228 -7.1250 0.0000 -0.0000 -9.4875 24.9057 4.6709 -0.0000 0.0000 0.0000 82.2789 -10.3737 13.8624 -21.1936 32.0536 -6.1524 0.0000 -0.0000 -7.2427 -14.6297 -5.7952 1.5098 7.1250 -0.0000 -0.0000 10.0941 -35.8127 2.3086
1.6747 17.8644 -29.0287 -5.7767 -1.1892 9.0423 0.0000 0.0000 0.0000 -20.3046 -0.3969 -20.0606 2.7682 10.3100 29.9864 0.8690 2.5818 -18.7228 0.1014 -2.0533 -5.6529 0.0000 0.0000 0.0000 17.3336 -2.2372 -3.1270 -11.5605 -18.1986 64.5888 0.0661 -12.8460 8.1274 -0.0065 -0.5208 1.4309 -0.1082 -0.5374 6.8570 4.1986 -0.5206 -1.1720 4.5037 -0.1912 -5.0340 4.9973 -5.0172 -19.8223 -4.6270 -7.4176 22.4474 -3.5008 -3.5571 10.0359 -0.0000 -0.0000 0.0000 -82.4257 2.1890 21.8516 17.7870 -27.8836 -4.4492 -0.0000 0.0000 -5.2068 13.8032 -4.8788 -1.1970 -7.1250 0.0000 -0.0000 -9.6162 24.9521 4.7255 -0.0000 -0.0000 0.0000 82.2502 -10.3977 13.9069 -21.2125 32.0755 -6.1624 0.0000 -0.0000 -7.2636 -14.6177 -5.7560 1.4984 7.1250 -0.0000 -0.0000 10.0981 -35.7723 2.3196
1.6751 17.8659 -29.0246 -5.8346 -1.1559 9.0804 0.0000 0.0000 0.0000 -20.2257 -0.3212 -20.1225 2.7688 10.3110 29.9897 0.8778 2.3925 -18.7164 0.1016 -2.0551 -5.6579 0.0000 0.0000 0.0000 17.3658 -2.3660 -3.0323 -11.5170 -18.1789 64.4494 0.0714 -12.9232 8.1155 -0.0066 -0.5261 1.4456 -0.1319 -0.5465 6.8366 4.2064 -0.5341 -1.1984 4.5272 -0.1966 -5.0488 4.9638 -5.0246 -19.8625 -4.6320 -7.4183 22.4752 -3.5002 -3.5602 10.0543 -0.0000 0.0000 0.0000 -82.4801 2.2299 21.9492 17.8487 -27.9630 -4.4781 -0.0000 0.0000 -5.2370 13.6399 -4.8741 -1.1812 -7.1250 0.0000 -0.0000 -9.7380 24.9601 4.7851 -0.0000 0.0000 0.0000 82.2147 -10.3947 13.9443 -21.2277 32.0932 -6.1705 0.0000 -0.0000 -7.2766 -14.6054 -5.7493 1.4953 7.1250 -0.0000 -0.0000 10.1072 -35.7648 2.3236
1.6754 17.8674 -29.0205 -5.8873 -1.1239 9.1188 0.0000 0.0000 0.0000 -20.1504 -0.2253 -20.1979 2.7700 10.3131 29.9967 0.8866 2.1761 -18.6994 0.1031 -2.0702 -5.6998 0.0000 0.0000 0.0000 17.3869 -2.4987 -2.9454 -11.4774 -18.1609 64.3223 0.0777 -13.0169 8.1011 -0.0068 -0.5308 1.4585 -0.1625 -0.5572 6.8079 4.2152 -0.5503 -1.2256 4.5556 -0.2032 -5.0594 4.9275 -5.0229 -19.9194 -4.6311 -7.4084 22.5314 -3.4976 -3.5571 10.0872 0.0000 -0.0000 0.0000 -82.5384 2.2777 22.0331 17.9056 -28.0361 -4.5048 -0.0000 0.0000 -5.2358 13.4916 -4.8965 -1.1732 -7.1250 0.0000 -0.0000 -9.8467 24.9403 4.8447 0.0000 -0.0000 0.0000 82.1700 -10.4182 14.0268 -21.2715 32.1439 -6.1938 0.0000 -0.0000 -7.3308 -14.6283 -5.7981 1.5104 7.1250 -0.0000 -0.0000 10.0958 -35.8155 2.3083
